<svg xmlns="http://www.w3.org/2000/svg" xmlns:xlink="http://www.w3.org/1999/xlink" width="189" height="256" viewBox="0 0 189 256" fill="none">
<path d="M127.088 160.617C127.088 146.638 133.713 135.524 144.59 130.729C155.474 125.934 167.739 128.513 177.214 137.165C180.254 139.936 182.911 141.268 185.686 139.972C188.534 138.64 189 133.756 189 130.721L189 78.6367C189 71.6756 183.838 66.7013 176.884 66.7013L125.89 66.7013C108.883 66.7013 105.093 52.3499 113.795 42.4781C128.12 26.2239 120.445 1.09065 94.38 0C68.3176 1.08687 60.6455 26.1793 74.9686 42.4346C83.6687 52.3108 79.882 66.7005 62.8752 66.7005L12.6333 66.7005C5.68324 66.7005 0 71.6748 0 78.6359L0 243.147C0 250.109 5.68351 256 12.6333 256L176.882 256C183.836 256 188.998 250.109 188.998 243.147L188.998 191.402C188.998 188.367 188.304 183.259 185.401 181.904C182.517 180.559 179.115 181.963 176.042 184.769C166.605 193.392 155.047 195.791 144.282 191.045C133.46 186.272 127.086 175.047 127.086 161.026L127.088 160.617Z"   fill="#FFFFFF" >
</path>
</svg>
